<?xml version="1.0" encoding="UTF-8"?>
<!DOCTYPE svg PUBLIC "-//W3C//DTD SVG 1.1//EN" "http://www.w3.org/Graphics/SVG/1.1/DTD/svg11.dtd">
<!-- Creator: CorelDRAW 2019 (64-Bit Evaluation Version) -->
<svg xmlns="http://www.w3.org/2000/svg" xml:space="preserve" width="169.132mm" height="33.9646mm" version="1.1" style="shape-rendering:geometricPrecision; text-rendering:geometricPrecision; image-rendering:optimizeQuality; fill-rule:evenodd; clip-rule:evenodd"
viewBox="0 0 14130.4 2837.63"
 xmlns:xlink="http://www.w3.org/1999/xlink">
 <defs>
  <style type="text/css">
   <![CDATA[
    .fil0 {fill:#004BA7}
    .fil1 {fill:#080909}
    .fil2 {fill:#004CAC;fill-rule:nonzero}
   ]]>
  </style>
 </defs>
 <g id="Layer_x0020_1">
  <metadata id="CorelCorpID_0Corel-Layer"/>
  <g id="_2026511507040">
   <path class="fil0" d="M0.05 1798.78l0.1 963.38 4020.11 1.98 -1.08 -440.4 -3543.31 -3.7 0.22 -430.25c15.23,-10.52 32.05,-22.12 46.68,-35.52l903.68 -775.9c16.17,-15.69 28.87,-23.26 46.44,-39.49 25.08,-23.17 26,-25.72 49.91,-43.61 97.73,-73.09 328.35,-292.81 429.99,-371.46 24.67,-19.09 26.53,-21.34 46.23,-46.07 42.93,22.52 362.47,298.26 395.68,325.77 20.61,17.07 22.19,23.33 44.79,40.09l919.59 785.87c58.65,47.4 36.33,44.02 135.59,43.35l575.62 -0.75c5.92,-44.61 -37.33,-57.92 -110.46,-122.75l-130.15 -108.73c-45.97,-37.14 -85.63,-72.54 -130.04,-109.25l-716.26 -605.59c-27.67,-23.57 -44.4,-36.35 -64.28,-55.04 -42.89,-40.34 -82.89,-70.65 -128.69,-109.62l-779.74 -661.11c-25.26,17.02 -31.76,27.09 -59.08,50.55l-162.59 136.65c-16.87,15.38 -13.36,15.28 -30.19,28.79l-708.47 605.14c-16.09,15.53 -41.51,38.06 -63.12,56.07l-98.39 81.68c-12.96,11.15 -16.12,17.03 -30.08,28.71 -13.59,11.38 -20.45,14.19 -34.03,26.38l-737.84 635.15c-60.01,64.05 -88.19,35.11 -86.81,149.65z"/>
   <polygon class="fil0" points="1660,1634.36 1959.48,1634.13 1961.71,1323.71 1663.27,1324.97 "/>
   <polygon class="fil0" points="2052.91,1634.66 2350.03,1634.51 2353.04,1324.11 2056.11,1324.75 "/>
   <polygon class="fil0" points="1659.54,2029.81 1962.75,2029.3 1961.56,1724.17 1661.63,1724.69 "/>
   <polygon class="fil0" points="2052.56,2029.58 2353.35,2029.34 2352.15,1724.07 2055.15,1724.79 "/>
  </g>
  <g id="_2026511511456">
   <path class="fil1" d="M7397.13 1288.11c-44.2,-267.76 131.61,-476.29 346.66,-510.98 274.07,-44.21 467.18,137.53 489.12,376.86 55.02,600.4 -744.06,689.64 -835.77,134.12zm1125.39 36.43c57.28,-433.84 -225.13,-751.15 -592.96,-805.65 -432.59,-64.1 -768.23,223.99 -825.1,579.79 -69.15,432.66 234.5,761.08 593.74,816.76 429.91,66.64 777.43,-235.79 824.32,-590.9z"/>
   <path class="fil1" d="M6169.31 1182.48l2.25 -403.93c205.62,-1.88 452.22,-28.46 459.19,193.84 8.2,261.87 -295.86,205.72 -461.44,210.09zm498.38 202.78c20.74,-19.32 60.35,-33.05 89.52,-50.6 237.74,-143.02 226.25,-490.18 68.48,-659.07 -189.41,-202.77 -626.82,-133.89 -954.8,-146.37l-0.77 1366.68 300.83 -5.26 2.54 -467.08 181.24 2.64 278.71 469.05 343.67 0.54 -309.42 -510.52z"/>
   <path class="fil1" d="M10436.48 868.76l197.14 499.22 -387.96 -0.83 190.82 -498.39zm-276.7 746.98l573.74 0.03 106.3 279.46 309.58 -4.14 -540.31 -1359.99 -329.61 -1.73c-25.84,93.22 -217.55,545.33 -272.6,690.86l-266.73 674.15 312.6 0.11 107.04 -278.76z"/>
   <path class="fil1" d="M9033.84 781.49c213.98,-10.76 451.02,-33.24 449.04,203.1 -2,237.61 -237.26,209.56 -452.75,205.38l3.71 -408.48zm-2.77 664.89c240.57,-2.54 415.51,29.96 585.09,-94.87 116.83,-86.01 211.24,-279.3 153.97,-499.72 -109.42,-421.07 -659.48,-314.9 -1030.95,-321.5l-0.23 1364.98 291.07 0.64 1.04 -449.53z"/>
   <path class="fil1" d="M12866.61 527.16c34.22,86.11 416.44,595.11 453.98,688.09l-465.1 680.44 332.36 0.25 298.65 -445.14c50.96,62.23 103.14,149.44 150.79,221.02 53.44,80.3 93.89,143.21 143.38,222.88l349.73 2.31 -469.37 -693.9c46.12,-93.58 393.32,-561.17 445.83,-673.1l-332.21 -0.43 -284.79 438.17c-32.32,-34.61 -113.88,-167.88 -145.2,-216.91 -46.32,-72.51 -100.52,-145.81 -136.54,-219.36l-341.5 -4.32z"/>
   <path class="fil1" d="M4908.59 785.02c204.44,-18.41 445.34,-27 443.6,199.56 -1.77,229.74 -235.31,222.97 -450.38,203.14l6.78 -402.69zm-1.82 666.07c234.92,-41.14 393.3,43.48 577.46,-102.53 112.28,-89.01 216.39,-274.27 154.25,-493.49 -116.58,-411.39 -584.83,-307.53 -1027.84,-325.87l-0.17 1366.39 294.67 0.41 1.63 -444.9z"/>
   <polygon class="fil1" points="11046.16,789.64 11467.56,794.44 11465.54,1895.17 11761.88,1896.55 11760.75,790.1 12166.66,790.78 12168.23,530.8 11046.63,529.56 "/>
   <polygon class="fil1" points="12368.33,1895.38 12660.91,1895.69 12660.97,530.59 12369.85,529.26 "/>
  </g>
  <path class="fil2" d="M5872.01 2748.77l0 -411.88 168.87 0c54.92,0 97.97,12.95 129.15,38.84 31.19,25.88 46.78,61.78 46.78,107.67 0,30.2 -7.06,56.19 -21.18,77.97 -14.13,21.77 -34.23,38.44 -60.31,50.01 -26.09,11.57 -57.37,17.36 -93.86,17.36l-127.09 0 34.13 -34.72 0 154.75 -76.5 0zm269.49 0l-104.14 -149.46 81.78 0 104.73 149.46 -82.38 0zm-192.99 -146.52l-34.13 -36.48 123.57 0c33.74,0 59.13,-7.26 76.19,-21.77 17.07,-14.51 25.6,-34.71 25.6,-60.6 0,-26.28 -8.53,-46.49 -25.6,-60.6 -17.06,-14.12 -42.46,-21.19 -76.19,-21.19l-123.57 0 34.13 -37.65 0 238.3z"/>
  <path id="1" class="fil2" d="M6334.96 2748.77l0 -411.88 300.68 0 0 64.14 -224.18 0 0 283.61 232.42 0 0 64.14 -308.91 0zm70.61 -177.7l0 -62.96 204.76 0 0 62.96 -204.76 0z"/>
  <path id="2" class="fil2" d="M6703.77 2748.77l185.35 -411.88 75.31 0 185.94 411.88 -80.02 0 -159.46 -371.28 30.59 0 -158.87 371.28 -78.84 0zm85.32 -95.32l20.59 -60.02 222.42 0 20.59 60.02 -263.61 0z"/>
  <polygon id="3" class="fil2" points="7235.56,2748.77 7235.56,2336.89 7312.05,2336.89 7312.05,2684.05 7527.41,2684.05 7527.41,2748.77 "/>
  <path id="4" class="fil2" d="M7783.23 2748.77l0 -411.88 300.68 0 0 64.14 -224.18 0 0 283.61 232.42 0 0 64.14 -308.91 0zm70.61 -177.7l0 -62.96 204.76 0 0 62.96 -204.76 0z"/>
  <path id="5" class="fil2" d="M8337.97 2754.66c-32.17,0 -62.96,-4.6 -92.38,-13.83 -29.42,-9.22 -52.76,-21.08 -70.02,-35.6l26.48 -59.43c16.48,12.95 36.88,23.74 61.2,32.37 24.32,8.63 49.23,12.94 74.72,12.94 21.57,0 39.03,-2.36 52.37,-7.06 13.34,-4.71 23.14,-11.08 29.43,-19.12 6.27,-8.05 9.41,-17.16 9.41,-27.36 0,-12.55 -4.5,-22.65 -13.53,-30.3 -9.02,-7.64 -20.69,-13.73 -35.01,-18.24 -14.32,-4.51 -30.2,-8.73 -47.66,-12.65 -17.45,-3.93 -34.91,-8.54 -52.37,-13.83 -17.45,-5.3 -33.34,-12.16 -47.65,-20.59 -14.32,-8.44 -25.99,-19.72 -35.01,-33.84 -9.02,-14.12 -13.53,-32.17 -13.53,-54.13 0,-22.37 5.98,-42.86 17.95,-61.49 11.96,-18.63 30.21,-33.54 54.72,-44.72 24.52,-11.18 55.61,-16.77 93.26,-16.77 24.71,0 49.23,3.14 73.55,9.42 24.32,6.27 45.5,15.3 63.55,27.07l-24.13 59.43c-18.43,-10.99 -37.46,-19.12 -57.07,-24.42 -19.62,-5.3 -38.45,-7.95 -56.49,-7.95 -21.19,0 -38.35,2.56 -51.49,7.65 -13.14,5.1 -22.75,11.76 -28.83,20 -6.08,8.24 -9.11,17.65 -9.11,28.25 0,12.55 4.41,22.65 13.23,30.3 8.83,7.65 20.4,13.63 34.71,17.95 14.32,4.32 30.31,8.53 47.96,12.65 17.65,4.12 35.21,8.73 52.67,13.83 17.45,5.1 33.34,11.77 47.65,20.01 14.32,8.24 25.89,19.42 34.72,33.54 8.82,14.13 13.23,31.97 13.23,53.54 0,21.97 -5.98,42.27 -17.95,60.91 -11.96,18.63 -30.3,33.54 -55.02,44.71 -24.71,11.18 -55.89,16.77 -93.56,16.77z"/>
  <polygon id="6" class="fil2" points="8690.89,2748.77 8690.89,2401.61 8554.38,2401.61 8554.38,2336.89 8903.89,2336.89 8903.89,2401.61 8767.38,2401.61 8767.38,2748.77 "/>
  <path id="7" class="fil2" d="M8915.54 2748.77l185.35 -411.88 75.31 0 185.94 411.88 -80.02 0 -159.46 -371.28 30.59 0 -158.87 371.28 -78.84 0zm85.32 -95.32l20.59 -60.02 222.42 0 20.59 60.02 -263.61 0z"/>
  <polygon id="8" class="fil2" points="9510.29,2748.77 9510.29,2401.61 9373.78,2401.61 9373.78,2336.89 9723.29,2336.89 9723.29,2401.61 9586.78,2401.61 9586.78,2748.77 "/>
  <path id="9" class="fil2" d="M9813.78 2748.77l0 -411.88 300.68 0 0 64.14 -224.18 0 0 283.61 232.42 0 0 64.14 -308.91 0zm70.61 -177.7l0 -62.96 204.76 0 0 62.96 -204.76 0z"/>
  <path id="10" class="fil2" d="M10220.24 2837.63l34.13 -130.04 10 43.54c-13.73,0 -25.21,-4.22 -34.42,-12.65 -9.22,-8.44 -13.83,-19.91 -13.83,-34.43 0,-14.9 4.61,-26.77 13.83,-35.59 9.22,-8.83 20.49,-13.24 33.84,-13.24 13.73,0 25.11,4.51 34.12,13.53 9.02,9.02 13.53,20.79 13.53,35.3 0,3.93 -0.39,8.15 -1.18,12.66 -0.78,4.51 -2.06,9.71 -3.82,15.59 -1.77,5.88 -4.61,13.33 -8.54,22.36l-30 82.97 -47.66 0z"/>
  <path id="11" class="fil2" d="M10585.51 2748.77l0 -411.88 168.87 0c54.92,0 97.97,12.95 129.15,38.84 31.19,25.88 46.78,61.78 46.78,107.67 0,30.2 -7.06,56.19 -21.18,77.97 -14.13,21.77 -34.23,38.44 -60.31,50.01 -26.09,11.57 -57.37,17.36 -93.86,17.36l-127.09 0 34.13 -34.72 0 154.75 -76.5 0zm269.49 0l-104.14 -149.46 81.78 0 104.73 149.46 -82.38 0zm-192.99 -146.52l-34.13 -36.48 123.57 0c33.74,0 59.13,-7.26 76.19,-21.77 17.07,-14.51 25.6,-34.71 25.6,-60.6 0,-26.28 -8.53,-46.49 -25.6,-60.6 -17.06,-14.12 -42.46,-21.19 -76.19,-21.19l-123.57 0 34.13 -37.65 0 238.3z"/>
  <path id="12" class="fil2" d="M11048.46 2748.77l0 -411.88 300.68 0 0 64.14 -224.18 0 0 283.61 232.42 0 0 64.14 -308.91 0zm70.61 -177.7l0 -62.96 204.76 0 0 62.96 -204.76 0z"/>
  <path id="13" class="fil2" d="M11417.26 2748.77l185.35 -411.88 75.31 0 185.94 411.88 -80.02 0 -159.46 -371.28 30.59 0 -158.87 371.28 -78.84 0zm85.32 -95.32l20.59 -60.02 222.42 0 20.59 60.02 -263.61 0z"/>
  <polygon id="14" class="fil2" points="11949.06,2748.77 11949.06,2336.89 12025.55,2336.89 12025.55,2684.05 12240.91,2684.05 12240.91,2748.77 "/>
  <path id="15" class="fil2" d="M12496.73 2748.77l0 -411.88 300.68 0 0 64.14 -224.18 0 0 283.61 232.42 0 0 64.14 -308.91 0zm70.61 -177.7l0 -62.96 204.76 0 0 62.96 -204.76 0z"/>
  <path id="16" class="fil2" d="M12865.54 2748.77l185.35 -411.88 75.31 0 185.94 411.88 -80.02 0 -159.46 -371.28 30.59 0 -158.87 371.28 -78.84 0zm85.32 -95.32l20.59 -60.02 222.42 0 20.59 60.02 -263.61 0z"/>
  <path id="17" class="fil2" d="M13525.01 2754.66c-32.17,0 -62.96,-4.6 -92.38,-13.83 -29.42,-9.22 -52.76,-21.08 -70.02,-35.6l26.48 -59.43c16.48,12.95 36.88,23.74 61.2,32.37 24.32,8.63 49.23,12.94 74.72,12.94 21.57,0 39.03,-2.36 52.37,-7.06 13.34,-4.71 23.14,-11.08 29.43,-19.12 6.27,-8.05 9.41,-17.16 9.41,-27.36 0,-12.55 -4.5,-22.65 -13.53,-30.3 -9.02,-7.64 -20.69,-13.73 -35.01,-18.24 -14.32,-4.51 -30.2,-8.73 -47.66,-12.65 -17.45,-3.93 -34.91,-8.54 -52.37,-13.83 -17.45,-5.3 -33.34,-12.16 -47.65,-20.59 -14.32,-8.44 -25.99,-19.72 -35.01,-33.84 -9.02,-14.12 -13.53,-32.17 -13.53,-54.13 0,-22.37 5.98,-42.86 17.95,-61.49 11.96,-18.63 30.21,-33.54 54.72,-44.72 24.52,-11.18 55.61,-16.77 93.26,-16.77 24.71,0 49.23,3.14 73.55,9.42 24.32,6.27 45.5,15.3 63.55,27.07l-24.13 59.43c-18.43,-10.99 -37.46,-19.12 -57.07,-24.42 -19.62,-5.3 -38.45,-7.95 -56.49,-7.95 -21.19,0 -38.35,2.56 -51.49,7.65 -13.14,5.1 -22.75,11.76 -28.83,20 -6.08,8.24 -9.11,17.65 -9.11,28.25 0,12.55 4.41,22.65 13.23,30.3 8.83,7.65 20.4,13.63 34.71,17.95 14.32,4.32 30.31,8.53 47.96,12.65 17.65,4.12 35.21,8.73 52.67,13.83 17.45,5.1 33.34,11.77 47.65,20.01 14.32,8.24 25.89,19.42 34.72,33.54 8.82,14.13 13.23,31.97 13.23,53.54 0,21.97 -5.98,42.27 -17.95,60.91 -11.96,18.63 -30.3,33.54 -55.02,44.71 -24.71,11.18 -55.89,16.77 -93.56,16.77z"/>
  <polygon id="18" class="fil2" points="13892.64,2748.77 13892.64,2585.78 13909.7,2632.86 13730.83,2336.89 13812.62,2336.89 13956.19,2575.2 13910.29,2575.2 14055.04,2336.89 14130.36,2336.89 13951.48,2632.86 13969.13,2585.78 13969.13,2748.77 "/>
 </g>
</svg>
